<svg viewBox="0 0 256 256" xmlns="http://www.w3.org/2000/svg" xmlns:svg="http://www.w3.org/2000/svg">
 <!-- Created with SVG-edit - http://svg-edit.googlecode.com/ -->

 <g>
  <title>Layer 1</title>
  <rect fill="#000000" stroke-width="5" stroke-dasharray="null" stroke-linejoin="null" stroke-linecap="null" fill-opacity="0" x="94" y="63" width="32" height="102" id="svg_5" stroke="#000000"/>
  <line stroke="#ff5400" fill="none" stroke-width="7" stroke-dasharray="null" stroke-linejoin="null" stroke-linecap="null" fill-opacity="0" x1="123" y1="174" x2="123" y2="190" id="svg_21"/>
  <path stroke="#000000" fill="#000000" stroke-width="7" stroke-dasharray="null" stroke-linejoin="null" stroke-linecap="null" fill-opacity="0" d="m134.92259,204c46.96775,0 45.08904,-37.08434 45.08904,-37.08434c0,0 -84.54196,-0.91566 -84.54196,-0.91566c0,0 -0.46968,6.40964 -0.46968,6.40964c0,0 0.93936,6.86747 0.93936,6.86747c0,0 3.75742,6.40964 3.75742,6.40964c0,0 4.69678,5.95181 4.69678,5.95181c0,0 6.10581,5.49398 6.10581,5.49398c0,0 6.10581,3.20482 6.10581,3.20482c0,0 5.63613,1.83133 5.63613,1.83133c0,0 12.68129,1.83133 12.68129,1.83133z" id="svg_4"/>
  <rect fill="#000000" stroke="#000000" stroke-width="5" stroke-dasharray="null" stroke-linejoin="null" stroke-linecap="null" fill-opacity="0" x="60" y="129" width="33" height="9" id="svg_7" transform="rotate(-32.905242919921875 76.4999999999999,133.49999999999997) "/>
  <rect fill="#000000" stroke="#000000" stroke-width="5" stroke-dasharray="null" stroke-linejoin="null" stroke-linecap="null" fill-opacity="0" x="60" y="105" width="33" height="9" id="svg_8" transform="rotate(24.075498580932617 76.5000000000001,109.49999999999997) "/>
  <ellipse fill="#000000" stroke="#ff5400" stroke-width="3" stroke-dasharray="null" stroke-linejoin="null" stroke-linecap="null" fill-opacity="0" cx="106" cy="92" id="svg_9" rx="6" ry="6"/>
  <line stroke="#ff5400" fill="none" stroke-width="7" stroke-dasharray="null" stroke-linejoin="null" stroke-linecap="null" fill-opacity="0" x1="120" y1="189" x2="157" y2="189" id="svg_22"/>
  <g id="svg_15"/>
 </g>
</svg>