<svg viewBox="0 0 160 160" xmlns="http://www.w3.org/2000/svg" xmlns:svg="http://www.w3.org/2000/svg">
 <!-- Created with SVG-edit - http://svg-edit.googlecode.com/ -->

 <g>
  <title>Layer1</title>
  <g id="svg_3">
   <rect stroke="#000000" id="svg_5" height="102" width="32" y="8.74999" x="50.14701" fill-opacity="0" stroke-linecap="null" stroke-linejoin="null" stroke-dasharray="null" stroke-width="5" fill="#000000"/>
   <rect id="svg_7" height="9" width="33" y="72.74999" x="16.14701" fill-opacity="0" stroke-linecap="null" stroke-linejoin="null" stroke-dasharray="null" stroke-width="5" stroke="#000000" fill="#000000" transform="rotate(-20 32.64701080322265,77.24999237060547) "/>
   <rect id="svg_8" height="9" width="33" y="50.74999" x="16.14701" fill-opacity="0" stroke-linecap="null" stroke-linejoin="null" stroke-dasharray="null" stroke-width="5" stroke="#000000" fill="#000000" transform="rotate(20 32.64701080322265,55.24999237060546) "/>
   <ellipse ry="6" rx="6" id="svg_9" cy="37.74999" cx="62.14701" fill-opacity="0" stroke-linecap="null" stroke-linejoin="null" stroke-dasharray="null" stroke-width="3" stroke="#ff5400" fill="#000000"/>
   <path id="svg_4" d="m90.8196,151.24999c46.96775,0 45.08904,-37.08434 45.08904,-37.08434c0,0 -84.54196,-0.91566 -84.54196,-0.91566c0,0 -0.46968,6.40964 -0.46968,6.40964c0,0 0.93936,6.86747 0.93936,6.86747c0,0 3.75742,6.40964 3.75742,6.40964c0,0 4.69678,5.95181 4.69678,5.95181c0,0 6.10581,5.49398 6.10581,5.49398c0,0 6.10581,3.20482 6.10581,3.20482c0,0 5.63613,1.83133 5.63613,1.83133c0,0 12.68129,1.83133 12.68129,1.83133l0,-0.00002z" fill-opacity="0" stroke-linecap="null" stroke-linejoin="null" stroke-dasharray="null" stroke-width="7" fill="#000000" stroke="#000000"/>
   <line stroke="#ff5400" transform="rotate(-19.241897583007812 77.30463409423831,129.5537872314453) " id="svg_21" y2="138.64326" x2="77.30477" y1="120.46434" x1="77.30477" fill-opacity="0" stroke-linecap="null" stroke-linejoin="null" stroke-dasharray="null" stroke-width="7" fill="none"/>
   <path id="svg_1" d="m80.39701,138.24999c22,0 64,-21 64,-21c0,0 -64,21 -64,21z" fill-opacity="0" stroke-linecap="null" stroke-linejoin="null" stroke-dasharray="null" stroke-width="7" stroke="#ff5400" fill="#000000"/>
   <path d="m83.20951,138.04687c-0.91406,0 -1.86587,0.12692 -2.69888,0c-0.70018,-0.10669 -0.48235,-1.05975 0.28744,-1.26563c0.84309,-0.22546 1.57648,0.21094 2.34113,0.49219l0.49219,0.44493" id="svg_2" fill-opacity="0" stroke-linecap="null" stroke-linejoin="null" stroke-dasharray="null" stroke-width="7" stroke="#ff5400" fill="none"/>
  </g>
 </g>
</svg>