<svg viewBox="0 0 256 256" xmlns="http://www.w3.org/2000/svg" xmlns:svg="http://www.w3.org/2000/svg">
 <!-- Created with SVG-edit - http://svg-edit.googlecode.com/ -->

 <g>
  <title>Head</title>
  <rect fill="#000000" stroke-width="5" stroke-dasharray="null" stroke-linejoin="null" stroke-linecap="null" fill-opacity="0" x="94" y="64" width="32" height="102" id="svg_5" stroke="#000000"/>
  <rect transform="rotate(-20 76.50000000000006,132.5) " fill="#000000" stroke="#000000" stroke-width="5" stroke-dasharray="null" stroke-linejoin="null" stroke-linecap="null" fill-opacity="0" x="60" y="128" width="33" height="9" id="svg_7"/>
  <rect transform="rotate(20 76.49999999999994,110.5) " fill="#000000" stroke="#000000" stroke-width="5" stroke-dasharray="null" stroke-linejoin="null" stroke-linecap="null" fill-opacity="0" x="60" y="106" width="33" height="9" id="svg_8"/>
  <ellipse fill="#000000" stroke="#ff5400" stroke-width="3" stroke-dasharray="null" stroke-linejoin="null" stroke-linecap="null" fill-opacity="0" cx="106" cy="93" id="svg_9" rx="6" ry="6"/>
 </g>
 <g>
  <title>Body</title>
  <path stroke="#000000" fill="#000000" stroke-width="7" stroke-dasharray="null" stroke-linejoin="null" stroke-linecap="null" fill-opacity="0" d="m134.67259,206.5c46.96775,0 45.08904,-37.08434 45.08904,-37.08434c0,0 -84.54196,-0.91566 -84.54196,-0.91566c0,0 -0.46968,6.40964 -0.46968,6.40964c0,0 0.93936,6.86747 0.93936,6.86747c0,0 3.75742,6.40964 3.75742,6.40964c0,0 4.69678,5.95181 4.69678,5.95181c0,0 6.10581,5.49398 6.10581,5.49398c0,0 6.10581,3.20482 6.10581,3.20482c0,0 5.63613,1.83133 5.63613,1.83133c0,0 12.68129,1.83133 12.68129,1.83133l0,-0.00002z" id="svg_4"/>
 </g>
 <g>
  <title>Wing</title>
  <line fill="none" stroke-width="7" stroke-dasharray="null" stroke-linejoin="null" stroke-linecap="null" fill-opacity="0" x1="121.15776" y1="175.71435" x2="121.15776" y2="193.89327" id="svg_21" transform="rotate(-19.241897583007812 121.15762329101581,184.80380249023438) " stroke="#ff5400"/>
  <path fill="#000000" stroke="#ff5400" stroke-width="7" stroke-dasharray="null" stroke-linejoin="null" stroke-linecap="null" fill-opacity="0" d="m124.25,193.5c22,0 64,-21 64,-21c0,0 -64,21 -64,21z" id="svg_1"/>
  <path fill="none" stroke="#ff5400" stroke-width="7" stroke-dasharray="null" stroke-linejoin="null" stroke-linecap="null" fill-opacity="0" id="svg_2" d="m127.0625,193.29688c-0.91406,0 -1.86587,0.12692 -2.69888,0c-0.70018,-0.10669 -0.48235,-1.05975 0.28744,-1.26563c0.84309,-0.22546 1.57648,0.21094 2.34113,0.49219l0.49219,0.44493"/>
 </g>
</svg>